#!OML:ASF H:\MichaelJackson\Top Level 1\Subject 1\Session 1\male.ASF
:FULLY-SPECIFIED
:DEGREES
494
root 14.74 16.4919 -15.087 11.1926 26.964 -9.78341
lowerback 6.78385 3.23847 15.623
upperback 1.04595 5.42468 -0.588578
thorax -1.19093 2.67686 -9.75331
lowerneck -14.3736 -7.77639 13.0721
upperneck 5.22428 -12.4737 -2.85056
head 2.87654 -6.05985 -3.60119
rclavicle -7.37988e-015 1.98785e-015
rhumerus -11.7206 -21.2839 -81.9035
rradius 108.798
rwrist -53.9463
rhand -6.88741 -19.2454
rfingers 7.12502
rthumb 18.9791 -48.3395
lclavicle -7.37988e-015 1.98785e-015
lhumerus -57.4311 -26.6457 95.5567
lradius 52.9097
lwrist 22.1489
lhand -20.2367 10.8434
lfingers 7.12502
lthumb 6.1113 40.7352
rfemur -14.1395 6.87956 28.0655
rtibia 25.9143
rfoot -26.2173 -2.71718
rtoes 5.55743
lfemur -65.6365 -0.282348 -11.5199
ltibia 64.5879
lfoot 0.678589 -11.8237
ltoes 11.2549
495
root 14.7407 16.4823 -15.0198 11.2151 27.3858 -9.85958
lowerback 6.5685 3.4265 15.5894
upperback 1.11892 5.62708 -0.60315
thorax -0.935691 2.80345 -9.7304
lowerneck -14.5626 -7.90357 13.257
upperneck 5.33835 -12.7086 -2.79643
head 2.91519 -6.16363 -3.63172
rclavicle -6.30147e-014 3.86636e-014
rhumerus -11.4703 -21.3649 -82.4718
rradius 106.76
rwrist -52.906
rhand -12.7067 -23.5218
rfingers 7.12502
rthumb 13.376 -53.0724
lclavicle -6.30147e-014 3.86636e-014
lhumerus -57.7934 -26.2503 95.5935
lradius 52.4439
lwrist 21.662
lhand -20.7177 11.5511
lfingers 7.12502
lthumb 5.6469 41.4558
rfemur -13.9257 6.22807 28.3441
rtibia 25.788
rfoot -26.3269 -2.31869
rtoes 6.34455
lfemur -65.4201 -1.06605 -11.7959
ltibia 62.391
lfoot -0.540187 -12.362
ltoes 10.9338
496
root 14.746 16.4767 -14.9483 11.2315 27.7054 -9.88215
lowerback 6.40123 3.61115 15.5076
upperback 1.20677 5.82874 -0.641933
thorax -0.694023 2.92944 -9.70857
lowerneck -14.7856 -8.00671 13.397
upperneck 5.48129 -12.913 -2.70998
head 2.97535 -6.24931 -3.64864
rclavicle 4.47266e-016 1.66979e-014
rhumerus -11.3405 -21.17 -82.9531
rradius 104.793
rwrist -51.025
rhand -18.2386 -28.7348
rfingers 7.12502
rthumb 8.04008 -58.5619
lclavicle 4.47266e-016 1.66979e-014
lhumerus -58.175 -25.866 95.6403
lradius 52.0396
lwrist 21.273
lhand -21.2305 12.4545
lfingers 7.12502
lthumb 5.15177 42.3719
rfemur -13.5822 5.57434 28.548
rtibia 25.5084
rfoot -26.4101 -1.86708
rtoes 6.87671
lfemur -64.9982 -1.9604 -11.8822
ltibia 59.9344
lfoot -1.67472 -12.8271
ltoes 10.7474
497
root 14.7557 16.4751 -14.8729 11.1933 27.9098 -9.84439
lowerback 6.34661 3.78526 15.3689
upperback 1.31968 6.03036 -0.70068
thorax -0.492716 3.05346 -9.68427
lowerneck -15.0429 -8.08573 13.502
upperneck 5.66103 -13.0873 -2.61317
head 3.05757 -6.31765 -3.66038
rclavicle -1.48095e-014 4.28381e-014
rhumerus -11.3065 -20.744 -83.3412
rradius 102.849
rwrist -48.5233
rhand -22.8536 -34.8979
rfingers 7.12502
rthumb 3.58444 -64.8475
lclavicle -1.48095e-014 4.28381e-014
lhumerus -58.5975 -25.4986 95.7085
lradius 51.7324
lwrist 21.0193
lhand -21.7147 13.5329
lfingers 7.12502
lthumb 4.68425 43.4611
rfemur -13.058 4.91302 28.6747
rtibia 25.0942
rfoot -26.4772 -1.40774
rtoes 7.04946
lfemur -64.3364 -2.96991 -11.7707
ltibia 57.267
lfoot -2.70693 -13.1607
ltoes 10.9117
498
root 14.7686 16.4762 -14.7933 11.0803 27.9984 -9.75389
lowerback 6.42638 3.94667 15.1627
upperback 1.45914 6.23187 -0.770846
thorax -0.344961 3.17432 -9.64529
lowerneck -15.3294 -8.13641 13.5878
upperneck 5.8717 -13.2261 -2.52804
head 3.15722 -6.36728 -3.67504
rclavicle 5.30258e-014 5.77469e-014
rhumerus -11.3434 -20.133 -83.6346
rradius 100.885
rwrist -45.7665
rhand -26.2785 -41.6366
rfingers 7.12502
rthumb 0.276729 -71.6162
lclavicle 5.30258e-014 5.77469e-014
lhumerus -59.0935 -25.1507 95.8005
lradius 51.5691
lwrist 20.9343
lhand -22.072 14.6996
lfingers 7.12502
lthumb 4.33922 44.6352
rfemur -12.3418 4.30555 28.7334
rtibia 24.5632
rfoot -26.5189 -0.901436
rtoes 7.2518
lfemur -63.4467 -4.08819 -11.4549
ltibia 54.4479
lfoot -3.6743 -13.316
ltoes 11.3199
499
root 14.7842 16.4783 -14.7104 10.927 27.9757 -9.62067
lowerback 6.59936 4.10158 14.8943
upperback 1.6117 6.43505 -0.851875
thorax -0.241764 3.29277 -9.59175
lowerneck -15.623 -8.15754 13.6721
upperneck 6.09694 -13.3263 -2.46816
head 3.26402 -6.39799 -3.6971
rclavicle -4.56211e-014 1.49089e-014
rhumerus -11.4275 -19.3923 -83.8459
rradius 98.8657
rwrist -43.1432
rhand -28.5461 -47.9454
rfingers 7.12502
rthumb -1.91336 -77.9165
lclavicle -4.56211e-014 1.49089e-014
lhumerus -59.6742 -24.8163 95.9153
lradius 51.5677
lwrist 21.0112
lhand -22.2846 15.9122
lfingers 7.12502
lthumb 4.13399 45.8518
rfemur -11.4951 3.75735 28.7316
rtibia 23.9432
rfoot -26.5457 -0.51445
rtoes 7.02105
lfemur -62.4171 -5.30318 -10.9386
ltibia 51.5449
lfoot -4.59789 -13.2343
ltoes 11.8947
500
root 14.8014 16.4799 -14.6246 10.772 27.8647 -9.45387
lowerback 6.8104 4.25587 14.5562
upperback 1.76676 6.63809 -0.937074
thorax -0.166431 3.40842 -9.50802
lowerneck -15.9148 -8.15012 13.7701
upperneck 6.32377 -13.3889 -2.44649
head 3.37053 -6.41174 -3.73133
rclavicle -2.73329e-014 1.0635e-014
rhumerus -11.5359 -18.5769 -83.9901
rradius 96.7805
rwrist -40.9601
rhand -29.6736 -53.3792
rfingers 7.12502
rthumb -3.00229 -83.3378
lclavicle -2.73329e-014 1.0635e-014
lhumerus -60.3415 -24.4842 96.0479
lradius 51.7365
lwrist 21.2313
lhand -22.2927 17.0776
lfingers 7.12502
lthumb 4.12611 47.0174
rfemur -10.5877 3.29947 28.6817
rtibia 23.2751
rfoot -26.5322 -0.090627
rtoes 7.04456
lfemur -61.3411 -6.59829 -10.2365
ltibia 48.6296
lfoot -5.47951 -12.887
ltoes 12.6113
501
root 14.8196 16.4796 -14.5359 10.5901 27.6745 -9.28178
lowerback 7.06592 4.40369 14.1698
upperback 1.92779 6.83477 -1.01712
thorax -0.119796 3.51823 -9.39673
lowerneck -16.19 -8.11312 13.8716
upperneck 6.53672 -13.4087 -2.45148
head 3.47151 -6.40645 -3.77117
rclavicle -3.57315e-014 3.27995e-014
rhumerus -11.653 -17.718 -84.096
rradius 94.6447
rwrist -39.3809
rhand -29.999 -57.3396
rfingers 7.12502
rthumb -3.31644 -87.2936
lclavicle -3.57315e-014 3.27995e-014
lhumerus -61.1011 -24.1434 96.1932
lradius 52.0802
lwrist 21.555
lhand -22.0891 18.1107
lfingers 7.12502
lthumb 4.32269 48.0465
rfemur -9.63998 2.95452 28.6153
rtibia 22.6262
rfoot -26.5081 0.286167
rtoes 7.20221
lfemur -60.2416 -7.94054 -9.36745
ltibia 45.7735
lfoot -6.31624 -12.2642
ltoes 13.4152
502
root 14.8384 16.4762 -14.4446 10.4127 27.4209 -9.11939
lowerback 7.32024 4.54328 13.7639
upperback 2.08599 7.01753 -1.09892
thorax -0.0836064 3.61957 -9.27742
lowerneck -16.4417 -8.04334 13.9845
upperneck 6.72493 -13.3824 -2.47094
head 3.56327 -6.38024 -3.81297
rclavicle 9.80505e-014 -1.97791e-014
rhumerus -11.7753 -16.8316 -84.2134
rradius 92.5161
rwrist -38.4486
rhand -29.8404 -59.617
rfingers 7.12502
rthumb -3.16335 -89.5733
lclavicle 9.80505e-014 -1.97791e-014
lhumerus -61.9495 -23.7863 96.3295
lradius 52.5897
lwrist 21.9553
lhand -21.6617 18.9004
lfingers 7.12502
lthumb 4.73539 48.8275
rfemur -8.71039 2.69207 28.5453
rtibia 22.0183
rfoot -26.4938 0.565384
rtoes 7.24335
lfemur -59.1941 -9.27853 -8.37516
ltibia 43.0477
lfoot -7.08296 -11.3851
ltoes 14.3432
503
root 14.8562 16.4688 -14.3517 10.4607 27.0912 -8.97722
lowerback 7.32963 4.71936 13.3008
upperback 2.18643 7.21103 -1.18584
thorax 0.0207488 3.72701 -9.10912
lowerneck -16.661 -7.94558 14.0807
upperneck 6.8756 -13.3107 -2.48262
head 3.64379 -6.33352 -3.84512
rclavicle 1.12959e-013 -7.95139e-016
rhumerus -11.9068 -15.9361 -84.3692
rradius 90.4652
rwrist -38.0139
rhand -29.3992 -60.2702
rfingers 7.12502
rthumb -2.73726 90.2324
lclavicle 1.12959e-013 -7.95139e-016
lhumerus -62.8805 -23.4118 96.4614
lradius 53.2496
lwrist 22.4061
lhand -21.0165 19.3858
lfingers 7.12502
lthumb 5.35843 49.2981
rfemur -8.05994 2.52614 28.4748
rtibia 21.463
rfoot -26.4458 0.978421
rtoes 7.79311
lfemur -58.4611 -10.4487 -7.28964
ltibia 40.5198
lfoot -7.72113 -10.3441
ltoes 15.4821
504
root 14.8755 16.4578 -14.2569 10.4468 26.7259 -8.87143
lowerback 7.38819 4.87015 12.8699
upperback 2.3012 7.38004 -1.2623
thorax 0.107065 3.82116 -8.95185
lowerneck -16.8487 -7.82676 14.1414
upperneck 6.99019 -13.2002 -2.47247
head 3.71532 -6.26902 -3.86105
rclavicle -4.29375e-014 -7.9812e-014
rhumerus -12.065 -15.048 -84.5835
rradius 88.5781
rwrist -37.8823
rhand -28.7224 -59.7818
rfingers 7.12502
rthumb -2.08365 -89.7514
lclavicle -4.29375e-014 -7.9812e-014
lhumerus -63.8678 -23.0253 96.6008
lradius 54.0152
lwrist 22.8789
lhand -20.1948 19.5476
lfingers 7.12502
lthumb 6.15173 49.4383
rfemur -7.37958 2.33432 28.4206
rtibia 20.96
rfoot -26.4346 1.45029
rtoes 8.38187
lfemur -57.7492 -11.5098 -6.21127
ltibia 38.2545
lfoot -8.25336 -9.18655
ltoes 16.8151
505
root 14.8959 16.4439 -14.16 10.3895 26.3287 -8.80317
lowerback 7.47845 5.00587 12.4687
upperback 2.42112 7.53537 -1.32758
thorax 0.178092 3.90718 -8.80249
lowerneck -16.9997 -7.69276 14.1632
upperneck 7.06694 -13.0573 -2.4357
head 3.77642 -6.18981 -3.85863
rclavicle 5.9946e-014 -1.69464e-014
rhumerus -12.2805 -14.1903 -84.8665
rradius 86.9275
rwrist -37.7859
rhand -27.8455 -58.6242
rfingers 7.12502
rthumb -1.23673 -88.6004
lclavicle 5.9946e-014 -1.69464e-014
lhumerus -64.8832 -22.6365 96.7528
lradius 54.8336
lwrist 23.3422
lhand -19.1967 19.3895
lfingers 7.12502
lthumb 7.11533 49.2499
rfemur -6.68639 2.1049 28.3783
rtibia 20.5029
rfoot -26.4787 1.96683
rtoes 8.90027
lfemur -57.0718 -12.3753 -5.2285
ltibia 36.3064
lfoot -8.68397 -8.02755
ltoes 18.3337
